<svg width="191" height="191" viewBox="0 0 191 191" fill="none" xmlns="http://www.w3.org/2000/svg">
<path d="M49.9487 74.5537H40.3086V116.555H49.9487V74.5537Z" fill="white"/>
<path d="M123.054 83.9209C125.894 83.9209 128.051 81.4631 127.669 78.7049C127.369 76.4382 125.43 74.6632 123.136 74.6085C120.541 74.5812 118.411 76.684 118.411 79.333C118.384 81.8181 120.487 83.9209 123.054 83.9209Z" fill="white"/>
<path d="M127.918 89.7924H118.278V116.528H127.918V89.7924Z" fill="white"/>
<path d="M81.3807 99.9787H89.4096V91.7313H81.3807V87.8261C81.3807 83.839 84.1936 82.9105 86.3783 82.9105C87.9622 82.9105 88.9181 83.129 89.4096 83.2655V75.1547C88.6177 74.7997 86.6514 74.4446 84.6305 74.4446C76.7382 74.4446 71.6587 79.6607 71.6587 87.6896V116.555H81.3807V99.9787Z" fill="white"/>
<path d="M145.258 116.556C148.043 116.556 149.764 116.064 150.665 115.709C150.692 115.709 150.692 115.682 150.692 115.654V107.817C150.692 107.789 150.665 107.762 150.61 107.762C150.064 107.899 148.808 108.035 147.715 108.035C144.957 108.035 143.51 107.025 143.51 103.911V95.4183C143.51 95.391 143.537 95.3636 143.564 95.3636H150.61C150.61 95.3636 150.665 95.3363 150.665 95.309V86.8978C150.665 86.8705 150.638 86.8432 150.638 86.8432H143.564C143.537 86.8432 143.51 86.8159 143.51 86.7886V74.718C143.51 74.6906 143.483 74.6633 143.455 74.6633H134.006C134.006 74.6633 133.952 74.6906 133.952 74.718V105.605C133.979 112.432 138.321 116.556 145.258 116.556Z" fill="white"/>
<path d="M65.6242 90.1748H55.9841V116.555H65.6242V90.1748Z" fill="white"/>
<path d="M60.8174 83.9209C63.6575 83.9209 65.815 81.4631 65.4326 78.7049C65.1322 76.4382 63.1933 74.6632 60.8993 74.6085C58.3049 74.5812 56.1748 76.684 56.1748 79.333C56.1475 81.8181 58.2503 83.9209 60.8174 83.9209Z" fill="white"/>
<path d="M106.78 116.556C109.566 116.556 111.286 116.064 112.188 115.709C112.215 115.709 112.215 115.682 112.215 115.654V107.817C112.215 107.789 112.188 107.762 112.133 107.762C111.587 107.899 110.331 108.035 109.238 108.035C106.48 108.035 105.033 107.025 105.033 103.911V95.4183C105.033 95.391 105.06 95.3636 105.087 95.3636H112.133C112.16 95.3636 112.188 95.3363 112.188 95.309V86.8978C112.188 86.8705 112.16 86.8432 112.133 86.8432H105.087C105.06 86.8432 105.033 86.8159 105.033 86.7886V74.718C105.033 74.6906 105.005 74.6633 105.005 74.6633H95.529C95.529 74.6633 95.4744 74.6906 95.4744 74.718V105.605C95.4744 112.432 99.8165 116.556 106.78 116.556Z" fill="white"/>
<path d="M95.5 0C42.7661 0 0 42.7661 0 95.5C0 148.234 42.7661 191 95.5 191C148.234 191 191 148.234 191 95.5C191 42.7661 148.234 0 95.5 0ZM95.5 181.688C47.9002 181.688 9.31241 143.1 9.31241 95.5C9.31241 47.9002 47.9002 9.31241 95.5 9.31241C143.1 9.31241 181.688 47.9002 181.688 95.5C181.688 143.1 143.1 181.688 95.5 181.688Z" fill="white"/>
</svg>
